<?xml version="1.0" standalone="no"?>
<!DOCTYPE svg PUBLIC "-//W3C//DTD SVG 1.1//EN"
  "http://www.w3.org/Graphics/SVG/1.1/DTD/svg11.dtd">
<svg version="1.1" xmlns="http://www.w3.org/2000/svg" xmlns:xlink="http://www.w3.org/1999/xlink" width="832" height="495" viewBox="-1345 -69.5378605769231 1649 981.0757211538462" id="ccdiagram"><filter id="grayscale"><feColorMatrix type="saturate" values="0"></feColorMatrix></filter><filter id="highlight"><feColorMatrix type="matrix" color-interpolation-filters="sRGB" values="0.20338 0 0 0 0
                0 0.58474 0 0 0
                0 0 0.97033 0 0
                0 0 0 1 0"></feColorMatrix></filter><defs><style type="text/css">@import url('https://fonts.googleapis.com/css2?family=Noto+Sans:ital,wght@0,100..900;1,100..900&amp;family=Roboto+Mono:ital,wght@0,100..700;1,100..700&amp;display=swap');</style></defs><g><rect x="-1345" y="-69.5378605769231" width="1649" height="981.0757211538462" fill="#000000" id="interactionLayer"></rect><g style="pointer-events: none;"><g><pattern id="gridPatternMinor" x="0" y="37" width="128" height="74" patternUnits="userSpaceOnUse"><path d="M 0 0 L 128 74" stroke="#4f4f4f" stroke-width="1"></path><path d="M 128 0 L 0 74" stroke="#4f4f4f" stroke-width="1"></path></pattern><polygon points="-521 -546, 1152 421, -521 1388, -2194 421" fill="url(#gridPatternMinor)"></polygon></g></g><g pointer-events="auto"><g><g class="cloud-maps_raptor_node" id="680acbe9-de78-40b0-95e7-2088df7fc18c"><svg x="-624" y="416" overflow="visible"><g fill="#222f3d"><polygon points="0 0, 160 93, 96 130, -64 37" stroke="#222f3d" stroke-width="40"></polygon></g></svg></g></g></g><g style="pointer-events: none;"><g><pattern id="gridPatternMajor" x="0" y="37" width="128" height="74" patternUnits="userSpaceOnUse"><path d="M 64 0 L 128 37 64 74 0 37 z" stroke="#d5d5d5" stroke-width="1" fill="none"></path></pattern><polygon points="-521 -546, 1152 421, -521 1388, -2194 421" fill="url(#gridPatternMajor)"></polygon></g></g><g pointer-events="auto"></g><g pointer-events="auto"></g><g pointer-events="auto"></g><g pointer-events="auto"></g><g pointer-events="auto"><g><g class="cloud-maps_raptor_node" id="3065468401"></g></g></g><g pointer-events="auto"></g><g pointer-events="auto"></g><g pointer-events="auto"></g><g pointer-events="auto"></g><g pointer-events="auto"></g><g pointer-events="none"></g><g pointer-events="auto"><g id="6407d059-2a2c-41b5-8179-020a38323f44-b1eb3e97-2520-4b80-b6ea-6242c55d7860"><g cursor="cell"><line x1="-464" y1="416" x2="-502" y2="438" stroke="red" stroke-width="8" opacity="0"></line><line x1="-464" y1="416" x2="-502" y2="438" stroke="#4286c5" stroke-width="2" stroke-linecap="round"></line><polygon points="-512 444, -486 439, -500 437, -503 429, -512 444" stroke-linejoin="round" fill="#4286c5" stroke="#4286c5" stroke-width="1"></polygon></g></g><g id="7d0936b9-17d2-4930-9397-ffbb2c437378-b1eb3e97-2520-4b80-b6ea-6242c55d7860"><g cursor="cell"><line x1="-608" y1="389" x2="-640" y2="444" stroke="red" stroke-width="8" opacity="0"></line><line x1="-608" y1="389" x2="-640" y2="444" stroke="#ffffff" stroke-width="2" stroke-dasharray="8,6" stroke-linecap="butt"></line></g></g><g id="03d5c37c-8c1f-470d-bba2-f4817992c5ab-3e6cd241-a2ec-4a36-9b38-12797980409c"><g cursor="cell"><line x1="-352" y1="648" x2="-291" y2="683" stroke="red" stroke-width="8" opacity="0"></line><line x1="-352" y1="648" x2="-291" y2="683" stroke="#f44336" stroke-width="2" stroke-dasharray="8,6" stroke-linecap="butt"></line></g></g><g id="44caa33f-393e-4fb0-a796-1af9af35992d-729e50bd-e9b2-4b3a-9a80-e7e097148f36"><g cursor="cell"><line x1="-224" y1="574" x2="-163" y2="609" stroke="red" stroke-width="8" opacity="0"></line><line x1="-224" y1="574" x2="-163" y2="609" stroke="#f44336" stroke-width="2" stroke-dasharray="8,6" stroke-linecap="butt"></line></g></g><g id="ea5864ff-604e-449b-b01b-cbee9d899f11-03d5c37c-8c1f-470d-bba2-f4817992c5ab"><g cursor="cell"><line x1="-288" y1="611" x2="-352" y2="648" stroke="red" stroke-width="8" opacity="0"></line><line x1="-288" y1="611" x2="-352" y2="648" stroke="#f44336" stroke-width="2" stroke-dasharray="8,6" stroke-linecap="butt"></line></g></g><g id="e2901015-39ff-4cef-bcb9-4aa9f89f7878-7fea6934-cb77-49f4-bb07-5cb423cb4011"><g cursor="cell"><line x1="-829" y1="775" x2="-787" y2="610" stroke="red" stroke-width="8" opacity="0"></line><line x1="-829" y1="775" x2="-787" y2="610" stroke="#ffffff" stroke-width="2" stroke-linecap="round"></line><polygon points="-785 602, -800 615, -788 612, -777 617, -785 602" stroke-linejoin="round" fill="#ffffff" stroke="#ffffff" stroke-width="1"></polygon><text stroke="#000000" stroke-width="10" font-family="Noto Sans" font-weight="bold" font-size="16pt" fill="#ffffff" text-anchor="middle" dominant-baseline="middle" transform="translate(-807 689) matrix(0.707 0.409 -0.707 0.409 0 0) rotate(233.3)" xml:space="preserve"><tspan x="8" dy="0">/lowping</tspan><tspan x="8" dy="1.1em"> </tspan></text><text font-family="Noto Sans" font-weight="bold" font-size="16pt" fill="#ffffff" text-anchor="middle" dominant-baseline="middle" transform="translate(-807 689) matrix(0.707 0.409 -0.707 0.409 0 0) rotate(233.3)" xml:space="preserve"><tspan x="8" dy="0">/lowping</tspan><tspan x="8" dy="1.1em"> </tspan></text></g></g><g id="a3280237-f345-4e49-8e19-7888f002f2ac-491c9136-6bc8-490c-a19e-788592078f7d"><g cursor="cell"><line x1="-208" y1="379" x2="-278" y2="420" stroke="red" stroke-width="8" opacity="0"></line><line x1="-208" y1="379" x2="-278" y2="420" stroke="#4286c5" stroke-width="2" stroke-dasharray="8,6" stroke-linecap="butt"></line></g></g><g id="993a76e7-eb45-491f-9f2c-9d610e143279-44872b6c-5dba-4777-9d7c-01a828f1eec6"><g cursor="cell"><line x1="-272" y1="305" x2="-304" y2="324" stroke="red" stroke-width="8" opacity="0"></line><line x1="-272" y1="305" x2="-304" y2="324" stroke="#03a9f4" stroke-width="2" stroke-dasharray="8,6" stroke-linecap="butt"></line></g></g><g id="b1eb3e97-2520-4b80-b6ea-6242c55d7860-1add5de6-d1d2-4613-863b-817282df1f2d"><g cursor="cell"><line x1="-544" y1="500" x2="-416" y2="500" stroke="red" stroke-width="8" opacity="0"></line><line x1="-544" y1="500" x2="-416" y2="500" stroke="#ffffff" stroke-width="2" stroke-dasharray="8,6" stroke-linecap="butt"></line></g></g><g id="7906d1a6-3cbd-4662-9a33-cabdd31bfa75-e8013f0f-fe7d-407c-883f-c952456dc939"><g cursor="cell"><line x1="-400" y1="268" x2="-470" y2="309" stroke="red" stroke-width="8" opacity="0"></line><line x1="-400" y1="268" x2="-470" y2="309" stroke="#4286c5" stroke-width="2" stroke-dasharray="8,6" stroke-linecap="butt"></line></g></g><g id="ea5864ff-604e-449b-b01b-cbee9d899f11-44caa33f-393e-4fb0-a796-1af9af35992d"><g cursor="cell"><line x1="-288" y1="611" x2="-224" y2="574" stroke="red" stroke-width="8" opacity="0"></line><line x1="-288" y1="611" x2="-224" y2="574" stroke="#f44336" stroke-width="2" stroke-dasharray="8,6" stroke-linecap="butt"></line></g></g><g id="1456441a-4a9f-4670-b630-29fe6abb5179-6407d059-2a2c-41b5-8179-020a38323f44"><g cursor="cell"><line x1="-320" y1="500" x2="-464" y2="416" stroke="red" stroke-width="8" opacity="0"></line><line x1="-320" y1="500" x2="-464" y2="416" stroke="#4286c5" stroke-width="2" stroke-dasharray="8,6" stroke-linecap="butt"></line></g></g><g id="2532e60a-cab2-45ec-aa26-ce5128219e40-824f1dc6-3704-4c09-b38b-e2bdef99fa7c"><g cursor="cell"><line x1="-361" y1="605" x2="-320" y2="629" stroke="red" stroke-width="8" opacity="0"></line><line x1="-361" y1="605" x2="-320" y2="629" stroke="#607d8b" stroke-width="2" stroke-linecap="round"></line></g></g><g id="1add5de6-d1d2-4613-863b-817282df1f2d-491c9136-6bc8-490c-a19e-788592078f7d"><g cursor="cell"><line x1="-416" y1="500" x2="-308" y2="437" stroke="red" stroke-width="8" opacity="0"></line><line x1="-416" y1="500" x2="-308" y2="437" stroke="#ffffff" stroke-width="2" stroke-dasharray="8,6" stroke-linecap="butt"></line><polygon points="-298 431, -324 437, -311 439, -308 446, -298 431" stroke-linejoin="round" fill="#ffffff" stroke="#ffffff" stroke-width="1"></polygon></g></g><g id="b1eb3e97-2520-4b80-b6ea-6242c55d7860-17c29cc4-7400-4ebe-9f34-6958c7ca9421"><g cursor="cell"><line x1="-640" y1="444" x2="-794" y2="355" stroke="red" stroke-width="8" opacity="0"></line><line x1="-640" y1="444" x2="-794" y2="355" stroke="#e6e7e8" stroke-width="2" stroke-linecap="round"></line><polygon points="-803 350, -794 364, -791 357, -778 355, -803 350" stroke-linejoin="round" fill="#e6e7e8" stroke="#e6e7e8" stroke-width="1"></polygon><text stroke="#000000" stroke-width="10" font-family="Noto Sans" font-weight="bold" font-size="20pt" fill="#f44336" text-anchor="middle" dominant-baseline="middle" transform="translate(-722 397) matrix(0.707 0.409 -0.707 0.409 0 0) rotate(0)" xml:space="preserve"><tspan x="8" dy="0">Dead</tspan></text><text font-family="Noto Sans" font-weight="bold" font-size="20pt" fill="#f44336" text-anchor="middle" dominant-baseline="middle" transform="translate(-722 397) matrix(0.707 0.409 -0.707 0.409 0 0) rotate(0)" xml:space="preserve"><tspan x="8" dy="0">Dead</tspan></text></g></g><g id="2532e60a-cab2-45ec-aa26-ce5128219e40-bfd13a32-3452-4bde-b4dc-16969dc98701"><g cursor="cell"><line x1="-410" y1="577" x2="-432" y2="564" stroke="red" stroke-width="8" opacity="0"></line><line x1="-410" y1="577" x2="-432" y2="564" stroke="#4286c5" stroke-width="2" stroke-linecap="round"></line></g></g><g id="b85c7118-9d5e-406f-b810-10271758bd36-7fea6934-cb77-49f4-bb07-5cb423cb4011"><g cursor="cell"><line x1="-1085" y1="627" x2="-799" y2="603" stroke="red" stroke-width="8" opacity="0"></line><line x1="-1085" y1="627" x2="-799" y2="603" stroke="#ffffff" stroke-width="2" stroke-linecap="round"></line><polygon points="-785 602, -811 597, -803 603, -808 611, -785 602" stroke-linejoin="round" fill="#ffffff" stroke="#ffffff" stroke-width="1"></polygon><text stroke="#000000" stroke-width="10" font-family="Noto Sans" font-weight="bold" font-size="16pt" fill="#ffffff" text-anchor="middle" dominant-baseline="middle" transform="translate(-935 615) matrix(0.707 0.409 -0.707 0.409 0 0) rotate(306.7)" xml:space="preserve"><tspan x="8" dy="0">/good</tspan><tspan x="8" dy="1.1em"> </tspan></text><text font-family="Noto Sans" font-weight="bold" font-size="16pt" fill="#ffffff" text-anchor="middle" dominant-baseline="middle" transform="translate(-935 615) matrix(0.707 0.409 -0.707 0.409 0 0) rotate(306.7)" xml:space="preserve"><tspan x="8" dy="0">/good</tspan><tspan x="8" dy="1.1em"> </tspan></text></g></g><g id="9dd534d0-896f-4bfa-be08-1260f2123187-45779b56-5810-458d-8998-8547785c5ac3"><g cursor="cell"><line x1="-416" y1="685" x2="-371" y2="710" stroke="red" stroke-width="8" opacity="0"></line><line x1="-416" y1="685" x2="-371" y2="710" stroke="#f44336" stroke-width="2" stroke-dasharray="8,6" stroke-linecap="butt"></line></g></g><g id="ea5864ff-604e-449b-b01b-cbee9d899f11-e34ddfbf-cbe5-4cfa-8b5f-449f732861e4"><g cursor="cell"><line x1="-288" y1="611" x2="-219" y2="651" stroke="red" stroke-width="8" opacity="0"></line><line x1="-288" y1="611" x2="-219" y2="651" stroke="#f44336" stroke-width="2" stroke-dasharray="8,6" stroke-linecap="butt"></line></g></g><g id="d20557ea-332d-4289-a3fc-ff390fd09bda-7906d1a6-3cbd-4662-9a33-cabdd31bfa75"><g cursor="cell"><line x1="-304" y1="324" x2="-400" y2="268" stroke="red" stroke-width="8" opacity="0"></line><line x1="-304" y1="324" x2="-400" y2="268" stroke="#4286c5" stroke-width="2" stroke-dasharray="8,6" stroke-linecap="butt"></line></g></g><g id="6407d059-2a2c-41b5-8179-020a38323f44-378807d0-6787-4606-8f34-94842b99952a"><g cursor="cell"><line x1="-464" y1="416" x2="-404" y2="381" stroke="red" stroke-width="8" opacity="0"></line><line x1="-464" y1="416" x2="-404" y2="381" stroke="#4286c5" stroke-width="2" stroke-linecap="round"></line><polygon points="-394 376, -420 381, -407 383, -404 391, -394 376" stroke-linejoin="round" fill="#4286c5" stroke="#4286c5" stroke-width="1"></polygon></g></g><g id="03d5c37c-8c1f-470d-bba2-f4817992c5ab-9dd534d0-896f-4bfa-be08-1260f2123187"><g cursor="cell"><line x1="-352" y1="648" x2="-416" y2="685" stroke="red" stroke-width="8" opacity="0"></line><line x1="-352" y1="648" x2="-416" y2="685" stroke="#f44336" stroke-width="2" stroke-dasharray="8,6" stroke-linecap="butt"></line></g></g><g id="44872b6c-5dba-4777-9d7c-01a828f1eec6-53c7070e-eca6-4b19-b3f0-9b959b945fc9"><g cursor="cell"><line x1="-304" y1="324" x2="-384" y2="370" stroke="red" stroke-width="8" opacity="0"></line><line x1="-304" y1="324" x2="-384" y2="370" stroke="#03a9f4" stroke-width="2" stroke-dasharray="8,6" stroke-linecap="butt"></line></g></g><g id="7d0936b9-17d2-4930-9397-ffbb2c437378-e8013f0f-fe7d-407c-883f-c952456dc939"><g cursor="cell"><line x1="-608" y1="389" x2="-500" y2="326" stroke="red" stroke-width="8" opacity="0"></line><line x1="-608" y1="389" x2="-500" y2="326" stroke="#ffffff" stroke-width="2" stroke-dasharray="8,6" stroke-linecap="butt"></line><polygon points="-490 320, -516 326, -503 328, -500 335, -490 320" stroke-linejoin="round" fill="#ffffff" stroke="#ffffff" stroke-width="1"></polygon></g></g><g id="b1eb3e97-2520-4b80-b6ea-6242c55d7860-7fea6934-cb77-49f4-bb07-5cb423cb4011"><g cursor="cell"><line x1="-608" y1="500" x2="-710" y2="559" stroke="red" stroke-width="8" opacity="0"></line><line x1="-608" y1="500" x2="-710" y2="559" stroke="#e6e7e8" stroke-width="2" stroke-linecap="round"></line><polygon points="-720 564, -694 559, -708 557, -711 549, -720 564" stroke-linejoin="round" fill="#e6e7e8" stroke="#e6e7e8" stroke-width="1"></polygon><text stroke="#000000" stroke-width="10" font-family="Noto Sans" font-weight="bold" font-size="20pt" fill="#4caf50" text-anchor="middle" dominant-baseline="middle" transform="translate(-664 532) matrix(0.707 0.409 -0.707 0.409 0 0) rotate(-90)" xml:space="preserve"><tspan x="8" dy="0">Live</tspan></text><text font-family="Noto Sans" font-weight="bold" font-size="20pt" fill="#4caf50" text-anchor="middle" dominant-baseline="middle" transform="translate(-664 532) matrix(0.707 0.409 -0.707 0.409 0 0) rotate(-90)" xml:space="preserve"><tspan x="8" dy="0">Live</tspan></text></g></g><g id="a3280237-f345-4e49-8e19-7888f002f2ac-d20557ea-332d-4289-a3fc-ff390fd09bda"><g cursor="cell"><line x1="-208" y1="379" x2="-304" y2="324" stroke="red" stroke-width="8" opacity="0"></line><line x1="-208" y1="379" x2="-304" y2="324" stroke="#4286c5" stroke-width="2" stroke-dasharray="8,6" stroke-linecap="butt"></line></g></g><g id="bfd13a32-3452-4bde-b4dc-16969dc98701-1456441a-4a9f-4670-b630-29fe6abb5179"><g cursor="cell"><line x1="-432" y1="564" x2="-320" y2="500" stroke="red" stroke-width="8" opacity="0"></line><line x1="-432" y1="564" x2="-320" y2="500" stroke="#4286c5" stroke-width="2" stroke-dasharray="8,6" stroke-linecap="butt"></line></g></g><g id="94aa7926-2f17-4b60-8f56-7b95626d1f33-7fea6934-cb77-49f4-bb07-5cb423cb4011"><g cursor="cell"><line x1="-1021" y1="738" x2="-795" y2="608" stroke="red" stroke-width="8" opacity="0"></line><line x1="-1021" y1="738" x2="-795" y2="608" stroke="#764dc1" stroke-width="2" stroke-linecap="round"></line><polygon points="-785 602, -811 607, -798 609, -795 617, -785 602" stroke-linejoin="round" fill="#764dc1" stroke="#764dc1" stroke-width="1"></polygon><text stroke="#ffffff" stroke-width="10" font-family="Noto Sans" font-weight="bold" font-size="17pt" fill="#5b2bad" text-anchor="middle" dominant-baseline="middle" transform="translate(-903 670) matrix(0.707 0.409 -0.707 0.409 0 0) rotate(270)" xml:space="preserve"><tspan x="8" dy="0">/All</tspan></text><text font-family="Noto Sans" font-weight="bold" font-size="17pt" fill="#5b2bad" text-anchor="middle" dominant-baseline="middle" transform="translate(-903 670) matrix(0.707 0.409 -0.707 0.409 0 0) rotate(270)" xml:space="preserve"><tspan x="8" dy="0">/All</tspan></text></g></g></g><g pointer-events="auto"><g><g class="cloud-maps_raptor_node" id="993a76e7-eb45-491f-9f2c-9d610e143279"><svg x="-296" y="249" width="112.002" height="70.288"><path fill="none" stroke="#2b0908" d="m111 35.402-7.858-6.942-62.857 18.059L8.857 28.373" stroke-linejoin="round" stroke-width="1.008"></path><path fill="#ad261f" stroke="#2b0908" d="m56 55.678-7.857 13.609h15.714zM1 41.983l7.857-13.61L1 35.271z" fill-rule="evenodd" stroke-linejoin="round" stroke-width="1.008"></path><path fill="#821c17" stroke="#2b0908" d="m111 42.069-7.858-13.61L111 35.402z" fill-rule="evenodd" stroke-linejoin="round" stroke-width="1.008"></path><path fill="#d82f27" stroke="#2b0908" d="M8.857 28.373 56 55.678l47.142-27.218L56 1.156z" fill-rule="evenodd" stroke-linejoin="round" stroke-width="1.008"></path><path fill="#ad261f" stroke="#2b0908" d="m1 41.983 7.857-13.61L56 55.678l-7.857 13.609z" fill-rule="evenodd"></path><path fill="#821c17" stroke="#2b0908" d="M63.857 69.287 56 55.677l47.142-27.217L111 42.069z" fill-rule="evenodd"></path><path fill="none" stroke="#131417" d="M1 35.271v6.711l47.143 27.305h15.714L111 42.069v-6.667l-7.858-6.942L56 1.156 8.857 28.373z" stroke-width="2"></path><g transform="scale(.87212 .50352) rotate(45 1682.355 -3171.487)"><circle cx="2820.64" cy="255.199" r="25.979" fill="none" stroke="#ffffff" stroke-width="3.448"></circle><path fill="#ffffff" d="M2817.601 243.03h-9.126a3.038 3.038 0 0 0-3.027 3.043l-.018 18.253a3.051 3.051 0 0 0 3.042 3.042h24.337a3.051 3.051 0 0 0 3.042-3.042v-15.211a3.051 3.051 0 0 0-3.042-3.042h-12.169z"></path><g fill="#d82f27" fill-rule="evenodd"><path stroke="#d82f27" d="m2803.23 240.955-11.691-6.75" stroke-width="9.375"></path><path fill="#ffffff" d="m2757.335 182.443-11.691-6.75m.704-1.218a1.406 1.406 0 0 0-1.922.515 1.406 1.406 0 0 0 .515 1.92l11.692 6.75a1.406 1.406 0 0 0 1.92-.514 1.406 1.406 0 0 0-.514-1.921z" transform="translate(45.895 58.512)"></path><path fill="#ffffff" d="m2748.632 181.348-6.289-7.545 9.679 1.674c-2.276.996-3.638 3.372-3.39 5.871z" transform="translate(45.895 58.512)"></path><path fill="#ffffff" d="M2742.389 173.543a.264.264 0 0 0-.248.43l6.289 7.545a.264.264 0 0 0 .465-.196c-.237-2.388 1.062-4.653 3.232-5.603a.264.264 0 0 0-.061-.502zm.617.643 8.31 1.437c-1.787 1.06-2.87 2.952-2.906 5.049z" transform="translate(45.895 58.512)"></path></g><path fill="#d82f27" stroke="#d82f27" d="m2803.23 269.444-11.692 6.75" fill-rule="evenodd" stroke-width="9.375"></path><path fill="#ffffff" d="m2757.335 210.932-11.692 6.75m12.057-8.108a1.406 1.406 0 0 0-1.07.14l-11.69 6.75a1.406 1.406 0 0 0-.514 1.92 1.406 1.406 0 0 0 1.92.516l11.691-6.75a1.406 1.406 0 0 0 .516-1.921 1.406 1.406 0 0 0-.854-.655z" transform="translate(45.895 58.512)" fill-rule="evenodd"></path><path fill="#ffffff" d="m2752.035 217.922-9.678 1.673 6.288-7.545c-.274 2.47 1.102 4.837 3.39 5.872z" transform="translate(45.895 58.512)" fill-rule="evenodd"></path><path fill="#ffffff" d="M2748.639 211.787a.264.264 0 0 0-.196.094l-6.289 7.545a.264.264 0 0 0 .248.43l9.678-1.674a.264.264 0 0 0 .064-.5c-2.187-.99-3.498-3.247-3.236-5.602a.264.264 0 0 0-.27-.293zm-.22.945c.025 2.08 1.12 3.963 2.919 5.043l-8.32 1.44z" transform="translate(45.895 58.512)" fill-rule="evenodd"></path><path fill="none" stroke="#d82f27" d="m2838.051 240.955 11.691-6.75" stroke-width="9.375"></path><path fill="#ffffff" d="m2792.156 182.443 5.519-3.187 6.172-3.563" transform="translate(45.895 58.512)" fill-rule="evenodd"></path><path fill="#ffffff" d="M2804.21 174.334a1.406 1.406 0 0 0-1.065.14l-6.174 3.565-5.518 3.186a1.406 1.406 0 0 0-.516 1.921 1.406 1.406 0 0 0 1.922.514l5.518-3.185 6.174-3.565a1.406 1.406 0 0 0 .513-1.92 1.406 1.406 0 0 0-.853-.656z" transform="translate(45.895 58.512)" fill-rule="evenodd"></path><path fill="#ffffff" d="m2797.455 175.453 9.679-1.673-6.289 7.545c.275-2.47-1.102-4.837-3.39-5.872z" transform="translate(45.895 58.512)" fill-rule="evenodd"></path><path fill="#ffffff" d="m2807.09 173.52-9.68 1.673a.264.264 0 0 0-.064.5c2.187.99 3.5 3.247 3.239 5.602a.264.264 0 0 0 .462.2l6.29-7.546a.264.264 0 0 0-.247-.43zm-.617.642-5.4 6.48c-.025-2.079-1.121-3.962-2.92-5.042z" transform="translate(45.895 58.512)" fill-rule="evenodd"></path><g fill="#ffffff" fill-rule="evenodd"><path stroke="#d82f27" d="m2838.051 269.444 11.691 6.75" stroke-width="9.375"></path><path d="m2792.156 210.932 11.691 6.75m-10.987-7.967a1.406 1.406 0 0 0-1.923.514 1.406 1.406 0 0 0 .516 1.921l11.692 6.75a1.406 1.406 0 0 0 1.92-.515 1.406 1.406 0 0 0-.514-1.92z" transform="translate(45.895 58.512)"></path><path d="m2800.859 212.027 6.288 7.545-9.678-1.674c2.276-.996 3.638-3.372 3.39-5.871z" transform="translate(45.895 58.512)"></path><path d="M2800.756 211.783a.264.264 0 0 0-.16.27c.237 2.388-1.062 4.653-3.233 5.603a.264.264 0 0 0 .061.502l9.678 1.674a.264.264 0 0 0 .248-.43l-6.289-7.545a.264.264 0 0 0-.305-.074zm.324.922 5.406 6.486-8.312-1.44c1.787-1.06 2.87-2.95 2.906-5.046z" transform="translate(45.895 58.512)"></path></g></g></svg></g></g><g><g class="cloud-maps_raptor_node" id="17c29cc4-7400-4ebe-9f34-6958c7ca9421"><svg x="-867" y="240" width="100.626" height="115.695"><path fill="#484e56" d="M50.313 1.155v56.693L99.41 29.501z" fill-rule="evenodd"></path><path fill="#1a1c1e" d="m1.215 29.501 49.098 28.347V1.155z" fill-rule="evenodd"></path><path fill="none" stroke="#000" d="M50.313 1.155v56.693"></path><path fill="#1a1c1e" d="M50.313 57.847 99.41 29.501l-24.549 70.866-24.548 14.173z" fill-rule="evenodd"></path><path fill="#31353a" d="m1.215 29.501 49.098 28.347v56.692l-24.55-14.173z" fill-rule="evenodd"></path><path fill="none" stroke="#000" d="m1.215 29.501 49.098 28.347L99.41 29.501 50.313 57.848v56.692"></path><path fill="none" stroke="#131417" d="M50.313 1.155 1.214 29.501l24.549 70.866 24.549 14.173 24.548-14.173 24.549-70.866z" stroke-width="2"></path></svg></g></g><g><g class="cloud-maps_raptor_node" id="b1eb3e97-2520-4b80-b6ea-6242c55d7860"><svg x="-640" y="380" width="127.987" height="138.272"><path fill="#31353a" d="M.5 46.427v54.514l62.946 36.344V82.771L47.71 55.511l-31.47-18.17z"></path><path fill="#1a1c1e" d="m79.316 55.512 31.47-18.17 15.735 9.085v54.515l-62.945 36.342V82.772z"></path><path fill="#484e56" d="m16.238 37.344 31.47 18.169h31.473l31.47-18.17V19.169L79.182 1.001H47.709l-31.47 18.17zm32.344 18.169h31.473L64.317 82.771z"></path><path fill="#31353a" d="M16.468 18.478v18.173L.728 45.736zm94.183 18.173V18.478l15.735 27.258z"></path><path fill="none" stroke="#000" d="M48.029 55.513h31.474l-15.74 27.259z" stroke-linejoin="round" stroke-width="1.026"></path><path fill="none" stroke="#000" d="M.5 46.427v54.514l62.946 36.344V82.771L47.71 55.511l-31.47-18.17zm79.069 9.064 31.47-18.169 15.735 9.085v54.511l-62.942 36.344V82.749z" stroke-linejoin="round"></path><path fill="none" stroke="#000" d="m16.238 37.344 31.47 18.169h31.473l31.47-18.17V19.169L79.182 1.001H47.709l-31.47 18.17z" stroke-linejoin="round"></path><path fill="none" stroke="#131417" d="M1.109 100.941V46.427l15.74-27.258L48.319.999h31.475l31.471 18.17L127 46.427v54.514l-62.945 36.344z" stroke-linejoin="round" stroke-width="2.001"></path><g transform="matrix(.46283 0 0 .26722 1256.598 -26.684)"><circle cx="-2577.924" cy="205.604" r="58.627" fill="none" stroke="#000" stroke-width="12"></circle><circle cx="-2577.924" cy="205.604" r="17.743" fill="none" stroke="#ffffff" stroke-width="12"></circle><circle cx="-2577.924" cy="205.604" r="36.88" fill="none" stroke="#ffffff" stroke-width="12"></circle><path fill="#612828" stroke="#ffffff" d="M-2577.643 255.025v25.718" fill-rule="evenodd" stroke-linecap="round" stroke-linejoin="round" stroke-width="36"></path><path fill="none" stroke="#484e56" d="M-2577.643 238.713v42.125" stroke-linecap="round" stroke-width="12"></path></g></svg></g></g><g><g class="cloud-maps_raptor_node" id="2532e60a-cab2-45ec-aa26-ce5128219e40"><svg x="-433" y="558" width="95.99" height="60.942"><path fill="none" stroke="#000" d="m95 26.166-7.833-6.921-47 27.135L8.833 28.29" stroke-linejoin="round" stroke-width="1.005"></path><path fill="#31353a" stroke="#000" d="m40.167 46.38-7.834 13.568H48zM1 41.857 8.833 28.29 1 35.167z" fill-rule="evenodd" stroke-linejoin="round"></path><path fill="#1a1c1e" stroke="#000" d="m95 32.812-7.833-13.567L95 26.165z" fill-rule="evenodd" stroke-linejoin="round"></path><path fill="#484e56" stroke="#000" d="m8.834 28.29 31.333 18.09 47-27.135-31.334-18.09z" fill-rule="evenodd" stroke-linejoin="round" stroke-width="1.005"></path><path fill="#31353a" stroke="#000" d="M1 41.857 8.833 28.29l31.334 18.09-7.834 13.568z" fill-rule="evenodd"></path><path fill="#1a1c1e" stroke="#000" d="M48 59.948 40.167 46.38l47-27.135L95 32.812z" fill-rule="evenodd"></path><path fill="none" stroke="#131417" d="M1 35.167v6.69l31.333 18.09H48l47-27.135v-6.646l-7.833-6.921-31.334-18.09-47 27.135z" stroke-width="2"></path><path fill="#ffffff" d="M55.807 23.767 48 19.26l-7.807 4.507L48 28.274zM48 25.269l-2.602-1.502L48 22.265l2.602 1.502zm13.011 4.508 2.602-1.503-2.602-1.502 2.602-1.502c1.432-.827 1.432-2.179 0-3.005l-2.602-1.502 2.602-1.503-2.602-1.502-2.602 1.502-2.602-1.502 2.602-1.503-2.602-1.502-2.603 1.502-2.602-1.502c-1.431-.826-3.773-.826-5.204 0l-2.603 1.502-2.602-1.502-2.602 1.502 2.602 1.503-2.602 1.502-2.602-1.502-2.603 1.502 2.603 1.503-2.603 1.502c-1.43.826-1.43 2.178 0 3.005l2.603 1.502-2.603 1.502 2.603 1.503 2.602-1.503 2.602 1.503-2.602 1.502 2.602 1.502 2.602-1.502 2.603 1.502c1.431.827 3.773.827 5.204 0l2.602-1.502 2.603 1.502 2.602-1.502-2.602-1.502 2.602-1.503zM48 31.279l-13.011-7.512 13.01-7.512 13.012 7.512z"></path></svg></g></g><g><g class="cloud-maps_raptor_node" id="7fea6934-cb77-49f4-bb07-5cb423cb4011"><svg x="-830" y="520" width="123" height="108.05"><path fill="#0d0e10" stroke="#000" d="M38.23 22.751v53.738l29.756-16.317v-54.6Z" fill-rule="evenodd" stroke-linejoin="round" stroke-width="1.011"></path><path fill="#24282c" stroke="#000" d="m1 8.421 37.23 14.33v53.738L1 44.247Z" fill-rule="evenodd" stroke-linejoin="round"></path><path fill="#3b4148" stroke="#000" d="M38.23 22.751 67.986 5.573 13.411 1.255 1.001 8.421z" fill-rule="evenodd" stroke-linejoin="round"></path><path fill="none" stroke="#131417" d="m1 44.247 37.23 32.242 29.756-16.317v-54.6l-55.165-4.55-11.82 6.826z" stroke-width="2"></path><path fill="#3b4148" stroke="#000" d="M84.77 13.794 53.747 31.712l56.04 39.295L122 63.955z" fill-rule="evenodd" stroke-width="1.011"></path><path fill="#24282c" stroke="#000" d="M53.747 31.712v53.739l55.847 21.494.194-35.938z" fill-rule="evenodd"></path><path fill="#0d0e10" stroke="#000" d="M109.788 71.007 122 63.955v35.823l-12.406 7.168z" fill-rule="evenodd"></path><path fill="none" stroke="#131417" d="M84.77 13.794 53.747 31.712v53.739l55.847 21.494L122 99.778V63.955z" stroke-width="2"></path><path fill="#ffffff" d="M79.713 77.218q.615 1.415.18 2.416-.435 1-1.666 1-1.23 0-2.536-1-1.306-1.001-1.92-2.416-.616-1.415-.18-2.416.435-1.001 1.665-1.001t2.536 1.001q1.306 1 1.921 2.416zm5.943-6.835q.302.695.08 1.201-.22.507-.823.508-.603 0-1.265-.508-.663-.508-.964-1.2-.308-.708-.09-1.209.218-.5.833-.5t1.268.5q.654.5.961 1.208zm5.943 13.67q.302.694.081 1.201-.22.507-.824.508-.603 0-1.265-.508-.662-.508-.964-1.201-.307-.707-.09-1.208.218-.501.833-.501t1.269.5q.653.502.96 1.209zm-6.9-5.62-1.074-2.47q-.059-.134-.195-.26t-.247-.14l-1.939-.321q-.33-.467-.812-1.015.116-.64.377-1.535.023-.134-.034-.267-.07-.16-.19-.254-.442-.4-1.478-1.194-1.035-.794-1.257-.795-.127 0-.203.093l-.812 1.202q-.54-.254-1.074-.415-.755-1.442-1.167-2.069-.22-.32-.488-.32h-2.159q-.127 0-.188.1-.062.1-.015.233l.62 2.043q-.336.133-.69.414l-1.886-1.188q-.122-.093-.273-.093-.127 0-.197.107-.9 1.775-.743 2.136.053.12.192.253.197.187.783.707.586.52.9.814-.012.588.069 1.095l-1.625.32q-.11.016-.142.127-.03.114.03.26l1.074 2.47q.058.134.194.26.136.127.247.141l1.939.32q.33.468.812 1.015-.116.641-.377 1.536-.019.146.034.267.07.16.197.266.43.401 1.468 1.188 1.039.788 1.26.788.127 0 .203-.093l.813-1.201q.499.24 1.08.427.754 1.442 1.16 2.056.221.32.488.32h2.159q.127 0 .189-.1.06-.1.015-.234l-.621-2.042q.336-.134.69-.414l1.886 1.187q.134.093.273.093.127 0 .197-.107.9-1.775.743-2.135-.053-.12-.192-.254-.232-.214-.8-.72-.57-.507-.871-.8-.012-.642-.082-1.095l1.631-.308q.105-.026.136-.14.03-.114-.03-.26zm4.335-7.115-.812-1.87q-.093-.213-1.91-.413-.296-.36-.65-.695-.064-1.508-.21-1.842-.022-.053-.086-.093-1.829-.948-1.851-.948-.093 0-.261.628-.169.627-.21.907-.244-.026-.36-.026-.116 0-.337.026-.284-.28-.998-.907-.714-.628-.807-.628-.022 0-1.027.948-.03.04-.007.093.145.333 1.393 1.842-.064.333-.047.695-1.643.2-1.55.414l.813 1.869q.093.213 1.91.414.319.387.65.694.063 1.509.209 1.842.022.053.086.093.058.027.523.267.464.24.882.454.418.214.442.214.093 0 .263-.62.171-.621.213-.902.244.027.36.027.116 0 .337-.027 1.004.948 1.718 1.495l.081.027q.046 0 1.033-.934.03-.04.008-.093-.145-.334-1.393-1.843.064-.307.046-.694 1.643-.2 1.55-.414zm5.944 13.67-.813-1.87q-.093-.214-1.91-.414-.295-.36-.65-.694-.064-1.509-.209-1.842-.022-.053-.087-.093-1.828-.948-1.851-.948-.093 0-.26.627-.169.627-.21.908-.244-.027-.36-.027-.117 0-.337.027-.285-.28-.999-.908-.714-.627-.806-.627-.023 0-1.027.948-.03.04-.008.093.145.333 1.393 1.842-.063.333-.046.694-1.643.2-1.55.414l.812 1.87q.093.213 1.91.413.32.388.65.695.064 1.508.21 1.842.022.053.086.093.058.026.522.267.465.24.883.453.418.214.441.214.093 0 .264-.62.17-.62.212-.901.244.026.36.026.117 0 .337-.026 1.005.948 1.718 1.495l.082.026q.046 0 1.033-.934.03-.04.007-.093-.144-.333-1.393-1.842.064-.307.047-.694 1.643-.2 1.55-.414z"></path></svg></g></g><g><g class="cloud-maps_raptor_node" id="b85c7118-9d5e-406f-b810-10271758bd36"><svg x="-1148" y="570" width="63" height="95.068"><path fill="#fff" stroke="#131417" d="M.501 85.684q0 6.102 3.215 7.78 3.216 1.676 8.542-1.399l38.487-22.22q5.328-3.076 8.542-8.465 3.213-5.389 3.215-11.492 0-2.694-.155-5.173-.156-2.478-.617-5.185-.46-2.706-1.166-4.845-.705-2.138-1.894-3.864-1.189-1.725-2.73-2.54-1.541-.817-3.765-.546-2.225.27-4.91 1.818-.397.229-1.85 2.161-1.452 1.932-3.28 4.334-1.826 2.402-4.756 5.186-2.93 2.785-5.879 4.488-2.95 1.703-5.879 2.3-2.93.599-4.757.307-1.827-.292-3.28-.547-1.452-.255-1.849-.026-2.685 1.55-4.91 3.851-2.224 2.301-3.765 4.894-1.541 2.592-2.73 5.693-1.188 3.1-1.894 6.05-.705 2.95-1.166 6.192-.461 3.242-.617 5.897-.155 2.656-.155 5.352zm14.09-53.54q0 8.084 4.954 10.944 4.954 2.86 11.955-1.182 7.001-4.041 11.955-12.622 4.954-8.58 4.954-16.665 0-8.083-4.954-10.944-4.954-2.86-11.955 1.182-7 4.042-11.955 12.623-4.954 8.58-4.954 16.664z" stroke-width=".996"></path></svg></g></g><g><g class="cloud-maps_raptor_node" id="e2901015-39ff-4cef-bcb9-4aa9f89f7878"><svg x="-892" y="718" width="63" height="95.068"><path fill="#fff" stroke="#131417" d="M.501 85.684q0 6.102 3.215 7.78 3.216 1.676 8.542-1.399l38.487-22.22q5.328-3.076 8.542-8.465 3.213-5.389 3.215-11.492 0-2.694-.155-5.173-.156-2.478-.617-5.185-.46-2.706-1.166-4.845-.705-2.138-1.894-3.864-1.189-1.725-2.73-2.54-1.541-.817-3.765-.546-2.225.27-4.91 1.818-.397.229-1.85 2.161-1.452 1.932-3.28 4.334-1.826 2.402-4.756 5.186-2.93 2.785-5.879 4.488-2.95 1.703-5.879 2.3-2.93.599-4.757.307-1.827-.292-3.28-.547-1.452-.255-1.849-.026-2.685 1.55-4.91 3.851-2.224 2.301-3.765 4.894-1.541 2.592-2.73 5.693-1.188 3.1-1.894 6.05-.705 2.95-1.166 6.192-.461 3.242-.617 5.897-.155 2.656-.155 5.352zm14.09-53.54q0 8.084 4.954 10.944 4.954 2.86 11.955-1.182 7.001-4.041 11.955-12.622 4.954-8.58 4.954-16.665 0-8.083-4.954-10.944-4.954-2.86-11.955 1.182-7 4.042-11.955 12.623-4.954 8.58-4.954 16.664z" stroke-width=".996"></path></svg></g></g><g><g class="cloud-maps_raptor_node" id="94aa7926-2f17-4b60-8f56-7b95626d1f33"><svg x="-1084" y="681" width="63" height="95.068"><path fill="#673ab7" stroke="#131417" d="M.501 85.684q0 6.102 3.215 7.78 3.216 1.676 8.542-1.399l38.487-22.22q5.328-3.076 8.542-8.465 3.213-5.389 3.215-11.492 0-2.694-.155-5.173-.156-2.478-.617-5.185-.46-2.706-1.166-4.845-.705-2.138-1.894-3.864-1.189-1.725-2.73-2.54-1.541-.817-3.765-.546-2.225.27-4.91 1.818-.397.229-1.85 2.161-1.452 1.932-3.28 4.334-1.826 2.402-4.756 5.186-2.93 2.785-5.879 4.488-2.95 1.703-5.879 2.3-2.93.599-4.757.307-1.827-.292-3.28-.547-1.452-.255-1.849-.026-2.685 1.55-4.91 3.851-2.224 2.301-3.765 4.894-1.541 2.592-2.73 5.693-1.188 3.1-1.894 6.05-.705 2.95-1.166 6.192-.461 3.242-.617 5.897-.155 2.656-.155 5.352zm14.09-53.54q0 8.084 4.954 10.944 4.954 2.86 11.955-1.182 7.001-4.041 11.955-12.622 4.954-8.58 4.954-16.665 0-8.083-4.954-10.944-4.954-2.86-11.955 1.182-7 4.042-11.955 12.623-4.954 8.58-4.954 16.664z" stroke-width=".996"></path></svg></g></g></g><g pointer-events="auto"></g><g pointer-events="auto"><g><g class="cloud-maps_raptor_node" id="e8013f0f-fe7d-407c-883f-c952456dc939"><svg x="-480" y="315" overflow="visible"><g transform="scale(0.8944271909999159) matrix(0.707 0.409 -0.707 0.409 0 0)"><circle cx="0" cy="0" fill="#ffffff" r="23"></circle><svg width="27" height="32" x="-13.5" y="-16" style="fill: rgb(0, 0, 0);"><svg xmlns="http://www.w3.org/2000/svg" width="27" height="32" viewBox="0 0 27 32"><path d="M26.214 6.786c.661.661 1.214 1.982 1.214 2.929v20.571c0 .946-.768 1.714-1.714 1.714h-24A1.715 1.715 0 0 1 0 30.286V1.715C0 .769.768.001 1.714.001h16c.946 0 2.268.554 2.929 1.214zm-7.928-4.357v6.714H25c-.107-.304-.268-.607-.393-.732l-5.589-5.589c-.125-.125-.429-.286-.732-.393zm6.857 27.285V11.428h-7.429A1.715 1.715 0 0 1 16 9.714V2.285H2.286v27.429h22.857z"></path></svg></svg></g></svg></g></g><g><g class="cloud-maps_raptor_node" id="491c9136-6bc8-490c-a19e-788592078f7d"><svg x="-288" y="426" overflow="visible"><g transform="scale(0.8944271909999159) matrix(0.707 0.409 -0.707 0.409 0 0)"><circle cx="0" cy="0" fill="#ffffff" r="23"></circle><svg width="27" height="32" x="-13.5" y="-16" style="fill: rgb(0, 0, 0);"><svg xmlns="http://www.w3.org/2000/svg" width="27" height="32" viewBox="0 0 27 32"><path d="M26.214 6.786c.661.661 1.214 1.982 1.214 2.929v20.571c0 .946-.768 1.714-1.714 1.714h-24A1.715 1.715 0 0 1 0 30.286V1.715C0 .769.768.001 1.714.001h16c.946 0 2.268.554 2.929 1.214zm-7.928-4.357v6.714H25c-.107-.304-.268-.607-.393-.732l-5.589-5.589c-.125-.125-.429-.286-.732-.393zm6.857 27.285V11.428h-7.429A1.715 1.715 0 0 1 16 9.714V2.285H2.286v27.429h22.857z"></path></svg></svg></g></svg></g></g><g><g class="cloud-maps_raptor_node" id="378807d0-6787-4606-8f34-94842b99952a"><svg x="-384" y="370" overflow="visible"><g transform="scale(0.8944271909999159) matrix(0.707 0.409 -0.707 0.409 0 0)"><circle cx="0" cy="0" fill="#ffffff" r="23"></circle><svg width="27" height="32" x="-13.5" y="-16" style="fill: rgb(0, 0, 0);"><svg xmlns="http://www.w3.org/2000/svg" width="27" height="32" viewBox="0 0 27 32"><path d="M26.214 6.786c.661.661 1.214 1.982 1.214 2.929v20.571c0 .946-.768 1.714-1.714 1.714h-24A1.715 1.715 0 0 1 0 30.286V1.715C0 .769.768.001 1.714.001h16c.946 0 2.268.554 2.929 1.214zm-7.928-4.357v6.714H25c-.107-.304-.268-.607-.393-.732l-5.589-5.589c-.125-.125-.429-.286-.732-.393zm6.857 27.285V11.428h-7.429A1.715 1.715 0 0 1 16 9.714V2.285H2.286v27.429h22.857z"></path></svg></svg></g></svg></g></g><g><g class="cloud-maps_raptor_node" id="e34ddfbf-cbe5-4cfa-8b5f-449f732861e4"><svg x="-208" y="657" overflow="visible"><g transform="scale(1.118033988749895) matrix(0.707 0.409 -0.707 0.409 0 0)"><circle cx="0" cy="0" fill="#ffffff" r="23"></circle><svg width="27" height="32" x="-13.5" y="-16" style="fill: rgb(0, 0, 0);"><svg xmlns="http://www.w3.org/2000/svg" width="27" height="32" viewBox="0 0 27 32"><path d="M13.714 2.286c7.571 0 13.714 6.143 13.714 13.714 0 6.054-3.929 11.196-9.375 13.018-.696.125-.946-.304-.946-.661 0-.446.018-1.929.018-3.768 0-1.286-.429-2.107-.929-2.536 3.054-.339 6.268-1.5 6.268-6.768 0-1.5-.536-2.714-1.411-3.679.143-.357.607-1.75-.143-3.643-1.143-.357-3.768 1.411-3.768 1.411a12.895 12.895 0 0 0-6.858 0S7.659 7.606 6.516 7.963c-.75 1.893-.286 3.286-.143 3.643-.875.964-1.411 2.179-1.411 3.679 0 5.25 3.196 6.429 6.25 6.768-.393.357-.75.964-.875 1.839-.786.357-2.786.964-3.982-1.143-.75-1.304-2.107-1.411-2.107-1.411-1.339-.018-.089.839-.089.839.893.411 1.518 2 1.518 2 .804 2.446 4.625 1.625 4.625 1.625 0 1.143.018 2.214.018 2.554 0 .357-.25.786-.946.661-5.446-1.821-9.375-6.964-9.375-13.018 0-7.571 6.143-13.714 13.714-13.714zM5.196 21.982c.036-.071-.018-.161-.125-.214-.107-.036-.196-.018-.232.036-.036.071.018.161.125.214.089.054.196.036.232-.036zm.554.607c.071-.054.054-.179-.036-.286-.089-.089-.214-.125-.286-.054-.071.054-.054.179.036.286.089.089.214.125.286.054zm.536.804c.089-.071.089-.214 0-.339-.071-.125-.214-.179-.304-.107-.089.054-.089.196 0 .321s.232.179.304.125zm.75.75c.071-.071.036-.232-.071-.339-.125-.125-.286-.143-.357-.054-.089.071-.054.232.071.339.125.125.286.143.357.054zm1.018.446c.036-.107-.071-.232-.232-.286-.143-.036-.304.018-.339.125s.071.232.232.268c.143.054.304 0 .339-.107zm1.125.09c0-.125-.143-.214-.304-.196-.161 0-.286.089-.286.196 0 .125.125.214.304.196.161 0 .286-.089.286-.196zm1.035-.179c-.018-.107-.161-.179-.321-.161-.161.036-.268.143-.25.268.018.107.161.179.321.143s.268-.143.25-.25z"></path></svg></svg></g></svg></g></g><g><g class="cloud-maps_raptor_node" id="729e50bd-e9b2-4b3a-9a80-e7e097148f36"><svg x="-144" y="620" overflow="visible"><g transform="scale(1.1305559694238938) matrix(0.707 0.409 -0.707 0.409 0 0)"><circle cx="0" cy="0" fill="transparent" r="31"></circle><svg width="48" height="48" x="-24" y="-24" style="fill: rgb(0, 0, 0);"><svg xmlns="http://www.w3.org/2000/svg" width="48" height="48" viewBox="0 0 48 48"><g fill="none" fill-rule="evenodd"><path fill="#B0084D" d="M25.909 24.955h1.908v-1.909h-1.908v1.909Zm-2.864 0h1.909v-1.909h-1.909v1.909Zm-2.863 0h1.909v-1.909h-1.909v1.909Zm17.136 6.048-6.59 5.799v-25.47l6.59 5.798v13.873ZM30.944 8.926c-.204-.087-1.088-.347-1.702-.006l-.514.285v29.724l.514.285c.229.127.495.171.751.171.428 0 .823-.122.951-.177l.148-.062 7.473-6.577c.463-.27.753-.756.753-1.285V16.849c0-.528-.289-1.014-.752-1.285l-7.474-6.576-.148-.062ZM17.273 36.803l-6.591-5.799V17.129l6.591-5.798v25.472Zm-.218-27.877-.148.062-7.475 6.577c-.461.271-.75.756-.75 1.284v14.435c0 .528.289 1.015.751 1.284l7.474 6.578.148.062c.127.055.523.177.951.177.255 0 .521-.044.75-.17l.517-.285V9.204l-.517-.285c-.612-.337-1.498-.08-1.701.007ZM44 32.284 32.284 44H15.715L4 32.284V15.716L15.715 4h16.569L44 15.716v16.568ZM33.112 2H14.887L2 14.888v18.224L14.887 46h18.225L46 33.112V14.888L33.112 2Z"></path></g></svg></svg></g></svg></g></g><g><g class="cloud-maps_raptor_node" id="3e6cd241-a2ec-4a36-9b38-12797980409c"><svg x="-272" y="694" overflow="visible"><g transform="scale(1.1305559694238938) matrix(0.707 0.409 -0.707 0.409 0 0)"><circle cx="0" cy="0" fill="transparent" r="31"></circle><svg width="48" height="48" x="-24" y="-24" style="fill: rgb(0, 0, 0);"><svg xmlns="http://www.w3.org/2000/svg" width="48" height="48" viewBox="0 0 48 48"><g fill="none" fill-rule="evenodd"><path fill="#4D27AA" d="M14 34.007h20v-20H14v20Zm21-22a1 1 0 0 1 1 1v22a1 1 0 0 1-1 1H13a1 1 0 0 1-1-1v-22a1 1 0 0 1 1-1h22Zm-9.207 17.707 1.414-1.414-4.293-4.293 4.293-4.293-1.414-1.414-5 5a.999.999 0 0 0 0 1.414l5 5ZM7.707 10.3 5.414 8.007H43v-2H5.414l2.293-2.293L6.293 2.3l-4 4a.999.999 0 0 0 0 1.414l4 4L7.707 10.3Zm38 31.414-4 4-1.414-1.414 2.293-2.293H5v-2h37.586l-2.293-2.293 1.414-1.414 4 4a.999.999 0 0 1 0 1.414Z"></path></g></svg></svg></g></svg></g></g><g><g class="cloud-maps_raptor_node" id="45779b56-5810-458d-8998-8547785c5ac3"><svg x="-352" y="722" overflow="visible"><g transform="scale(1.1305559694238938) matrix(0.707 0.409 -0.707 0.409 0 0)"><circle cx="0" cy="0" fill="transparent" r="31"></circle><svg width="48" height="48" x="-24" y="-24" style="fill: rgb(0, 0, 0);"><svg xmlns="http://www.w3.org/2000/svg" width="48" height="48" viewBox="0 0 48 48"><g fill="none" fill-rule="evenodd"><path fill="#B0084D" d="M25.909 24.955h1.908v-1.909h-1.908v1.909Zm-2.864 0h1.909v-1.909h-1.909v1.909Zm-2.863 0h1.909v-1.909h-1.909v1.909Zm17.136 6.048-6.59 5.799v-25.47l6.59 5.798v13.873ZM30.944 8.926c-.204-.087-1.088-.347-1.702-.006l-.514.285v29.724l.514.285c.229.127.495.171.751.171.428 0 .823-.122.951-.177l.148-.062 7.473-6.577c.463-.27.753-.756.753-1.285V16.849c0-.528-.289-1.014-.752-1.285l-7.474-6.576-.148-.062ZM17.273 36.803l-6.591-5.799V17.129l6.591-5.798v25.472Zm-.218-27.877-.148.062-7.475 6.577c-.461.271-.75.756-.75 1.284v14.435c0 .528.289 1.015.751 1.284l7.474 6.578.148.062c.127.055.523.177.951.177.255 0 .521-.044.75-.17l.517-.285V9.204l-.517-.285c-.612-.337-1.498-.08-1.701.007ZM44 32.284 32.284 44H15.715L4 32.284V15.716L15.715 4h16.569L44 15.716v16.568ZM33.112 2H14.887L2 14.888v18.224L14.887 46h18.225L46 33.112V14.888L33.112 2Z"></path></g></svg></svg></g></svg></g></g></g><g pointer-events="auto"><g><g class="cloud-maps_raptor_node" id="59539e1e-c9a3-4b65-9a76-d2057903f0dc"><svg x="-1056" y="796" overflow="visible"><text stroke="#ffffff" font-family="Noto Sans" y="30.799999999999997" font-size="20pt" fill="#673ab7" font-weight="bold" transform="matrix(0.707 -0.409 0.707 0.409 0 0)" paint-order="stroke" xml:space="preserve"><tspan x="8" dy="0">User</tspan></text></svg></g></g><g><g class="cloud-maps_raptor_node" id="6d1fac14-04ba-4e2f-9517-10c27c9bcc3d"><svg x="-192" y="222" overflow="visible"><text stroke="#000000" stroke-width="2" font-family="Noto Sans" y="36.5" font-size="25pt" fill="#ffffff" font-weight="bold" transform="matrix(0.707 0.409 -0.707 0.409 0 0)" paint-order="stroke" xml:space="preserve"><tspan x="8" dy="0">Proxy</tspan></text></svg></g></g><g><g class="cloud-maps_raptor_node" id="a5282e80-ba45-4b18-b65b-768efc4ea21f"><svg x="-464" y="268" overflow="visible"><text stroke="#000000" font-family="Noto Sans" y="23.96" font-size="14pt" fill="#f44336" font-weight="bold" transform="matrix(0.707 0.409 -0.707 0.409 0 0)" paint-order="stroke" xml:space="preserve"><tspan x="8" dy="0">working</tspan></text></svg></g></g><g><g class="cloud-maps_raptor_node" id="ae74ec35-ceba-4ac4-a87c-d5cb8e32a783"><svg x="-352" y="333" overflow="visible"><text stroke="#000000" font-family="Noto Sans" y="26.24" font-size="16pt" fill="#f44336" font-weight="bold" transform="matrix(0.707 0.409 -0.707 0.409 0 0)" paint-order="stroke" xml:space="preserve"><tspan x="8" dy="0">All</tspan></text></svg></g></g><g><g class="cloud-maps_raptor_node" id="f259375d-0b5b-481c-a814-2290f71ffb29"><svg x="-272" y="379" overflow="visible"><text stroke="#000000" stroke-width="2" font-family="Noto Sans" y="26.24" font-size="16pt" fill="#f44336" font-weight="bold" transform="matrix(0.707 0.409 -0.707 0.409 0 0)" paint-order="stroke" xml:space="preserve"><tspan x="8" dy="0">lowPing</tspan></text></svg></g></g><g><g class="cloud-maps_raptor_node" id="0636dc04-1576-4f85-918c-ad8c9c0d7c52"><svg x="-752" y="638" overflow="visible"><text stroke="#000000" stroke-width="2" font-family="Noto Sans" y="36.5" font-size="25pt" fill="#ffffff" font-weight="bold" transform="matrix(0.707 -0.409 0.707 0.409 0 0)" paint-order="stroke" xml:space="preserve"><tspan x="8" dy="0">API</tspan></text></svg></g></g><g><g class="cloud-maps_raptor_node" id="a2d363e1-205a-425d-b7d7-2b200a513be2"><svg x="-608" y="574" overflow="visible"><text stroke="#000000" stroke-width="2" font-family="Noto Sans" y="36.5" font-size="25pt" fill="#e6e7e8" font-weight="bold" transform="matrix(0.707 -0.409 0.707 0.409 0 0)" paint-order="stroke" xml:space="preserve"><tspan x="8" dy="0">nucle</tspan></text></svg></g></g><g><g class="cloud-maps_raptor_node" id="e3a50462-215b-4160-aa1a-579b66aa7e52"><svg x="-464" y="583" overflow="visible"><text stroke="#000000" stroke-width="2" font-family="Noto Sans" y="30.799999999999997" font-size="20pt" fill="#ffffff" font-weight="bold" transform="matrix(0.707 0.409 -0.707 0.409 0 0)" paint-order="stroke" xml:space="preserve"><tspan x="8" dy="0">P-Scraper</tspan></text></svg></g></g></g></g></svg>